HIERARCHY
ROOT Hips
{
	OFFSET -0.031289 103.266464 0.443827
	CHANNELS 6 Xposition Yposition Zposition Xrotation Yrotation Zrotation 
	JOINT Spine
	{
		OFFSET -0.002448 12.777534 0.315252
		CHANNELS 3 Xrotation Yrotation Zrotation
		JOINT Spine1
		{
			OFFSET -0.002040 5.816851 0.032640
			CHANNELS 3 Xrotation Yrotation Zrotation
			JOINT Spine1_split
			{
				OFFSET -0.002040 5.816851 0.032640
				CHANNELS 3 Xrotation Yrotation Zrotation
				JOINT Spine2
				{
					OFFSET -0.002040 5.816851 0.032640
					CHANNELS 3 Xrotation Yrotation Zrotation
					JOINT Neck
					{
						OFFSET -0.003672 21.199554 -0.826883
						CHANNELS 3 Xrotation Yrotation Zrotation
						JOINT Head
						{
							OFFSET -0.000000 20.442154 4.834770
							CHANNELS 3 Xrotation Yrotation Zrotation
							JOINT HeadTop_End
							{
								OFFSET 0.000000 34.668427 4.968426
								CHANNELS 3 Xrotation Yrotation Zrotation
								End Site
								{
									OFFSET 0.000000 0.000000 0.000000
								}
							}
						}
					}
					JOINT LeftShoulder
					{
						OFFSET 3.288174 8.794213 -1.372251
						CHANNELS 3 Xrotation Yrotation Zrotation
						JOINT LeftShoulder_split
						{
							OFFSET 3.288174 8.794213 -1.372251
							CHANNELS 3 Xrotation Yrotation Zrotation
							JOINT LeftArm
							{
								OFFSET 11.953302 -2.279037 -0.146175
								CHANNELS 3 Xrotation Yrotation Zrotation
								JOINT LeftForeArm
								{
									OFFSET 18.448874 0.000061 -0.000024
									CHANNELS 3 Xrotation Yrotation Zrotation
									JOINT LeftHand
									{
										OFFSET 29.527794 0.000092 -0.000021
										CHANNELS 3 Xrotation Yrotation Zrotation
										JOINT LeftHandThumb1
										{
											OFFSET 10.739838 -2.369766 9.225297
											CHANNELS 3 Xrotation Yrotation Zrotation
											JOINT LeftHandThumb2
											{
												OFFSET 4.926178 -2.844101 2.844107
												CHANNELS 3 Xrotation Yrotation Zrotation
												JOINT LeftHandThumb3
												{
													OFFSET 4.614899 -2.664444 2.664389
													CHANNELS 3 Xrotation Yrotation Zrotation
													JOINT LeftHandThumb4
													{
														OFFSET 4.432472 -2.559052 2.559026
														CHANNELS 3 Xrotation Yrotation Zrotation
														End Site
														{
															OFFSET 0.000000 0.000000 0.000000
														}
													}
												}
											}
										}
										JOINT LeftHandIndex1
										{
											OFFSET 26.467659 0.187592 6.405249
											CHANNELS 3 Xrotation Yrotation Zrotation
											JOINT LeftHandIndex2
											{
												OFFSET 8.792877 0.000046 -0.000014
												CHANNELS 3 Xrotation Yrotation Zrotation
												JOINT LeftHandIndex3
												{
													OFFSET 10.075157 0.000031 -0.000014
													CHANNELS 3 Xrotation Yrotation Zrotation
													End Site
													{
														OFFSET 0.000000 0.000000 0.000000
													}
												}
											}
										}
										JOINT LeftHandMiddle1
										{
											OFFSET 25.764420 0.000076 -0.000063
											CHANNELS 3 Xrotation Yrotation Zrotation
											JOINT LeftHandMiddle2
											{
												OFFSET 9.368942 -0.468658 -0.500905
												CHANNELS 3 Xrotation Yrotation Zrotation
												JOINT LeftHandMiddle3
												{
													OFFSET 10.758461 -0.538101 0.000023
													CHANNELS 3 Xrotation Yrotation Zrotation
													End Site
													{
														OFFSET 0.000000 0.000000 0.000000
													}
												}
											}
										}
										JOINT LeftHandRing1
										{
											OFFSET 24.660912 0.144745 -6.225863
											CHANNELS 3 Xrotation Yrotation Zrotation
											JOINT LeftHandRing2
											{
												OFFSET 9.393806 0.000046 -0.000017
												CHANNELS 3 Xrotation Yrotation Zrotation
												JOINT LeftHandRing3
												{
													OFFSET 9.928528 -0.000015 -0.000007
													CHANNELS 3 Xrotation Yrotation Zrotation
													End Site
													{
														OFFSET 0.000000 0.000000 0.000000
													}
												}
											}
										}
										JOINT LeftHandPinky1
										{
											OFFSET 23.655312 0.125748 -12.815530
											CHANNELS 3 Xrotation Yrotation Zrotation
											JOINT LeftHandPinky2
											{
												OFFSET 8.425102 0.000031 -0.000015
												CHANNELS 3 Xrotation Yrotation Zrotation
												JOINT LeftHandPinky3
												{
													OFFSET 8.146988 0.000015 -0.000021
													CHANNELS 3 Xrotation Yrotation Zrotation
													End Site
													{
														OFFSET 0.000000 0.000000 0.000000
													}
												}
											}
										}
									}
								}
							}
						}
					}
					JOINT RightShoulder
					{
						OFFSET -3.249397 8.794213 -1.372251
						CHANNELS 3 Xrotation Yrotation Zrotation
						JOINT RightShoulder_split
						{
							OFFSET -3.249397 8.794213 -1.372251
							CHANNELS 3 Xrotation Yrotation Zrotation
							JOINT RightArm
							{
								OFFSET -11.953302 -2.279037 -0.146175
								CHANNELS 3 Xrotation Yrotation Zrotation
								JOINT RightForeArm
								{
									OFFSET -18.448874 0.000061 -0.000024
									CHANNELS 3 Xrotation Yrotation Zrotation
									JOINT RightHand
									{
										OFFSET -29.527794 0.000092 -0.000021
										CHANNELS 3 Xrotation Yrotation Zrotation
										JOINT RightHandThumb1
										{
											OFFSET -10.739838 -2.369766 9.225297
											CHANNELS 3 Xrotation Yrotation Zrotation
											JOINT RightHandThumb2
											{
												OFFSET -4.926178 -2.844101 2.844107
												CHANNELS 3 Xrotation Yrotation Zrotation
												JOINT RightHandThumb3
												{
													OFFSET -4.614899 -2.664444 2.664389
													CHANNELS 3 Xrotation Yrotation Zrotation
													JOINT RightHandThumb4
													{
														OFFSET -4.432472 -2.559052 2.559026
														CHANNELS 3 Xrotation Yrotation Zrotation
														End Site
														{
															OFFSET 0.000000 0.000000 0.000000
														}
													}
												}
											}
										}
										JOINT RightHandIndex1
										{
											OFFSET -26.467659 0.187592 6.405249
											CHANNELS 3 Xrotation Yrotation Zrotation
											JOINT RightHandIndex2
											{
												OFFSET -8.792877 0.000046 -0.000014
												CHANNELS 3 Xrotation Yrotation Zrotation
												JOINT RightHandIndex3
												{
													OFFSET -10.075157 0.000031 -0.000014
													CHANNELS 3 Xrotation Yrotation Zrotation
													End Site
													{
														OFFSET 0.000000 0.000000 0.000000
													}
												}
											}
										}
										JOINT RightHandMiddle1
										{
											OFFSET -25.764420 0.000076 -0.000063
											CHANNELS 3 Xrotation Yrotation Zrotation
											JOINT RightHandMiddle2
											{
												OFFSET -9.368942 -0.468658 -0.500905
												CHANNELS 3 Xrotation Yrotation Zrotation
												JOINT RightHandMiddle3
												{
													OFFSET -10.758461 -0.538101 0.000023
													CHANNELS 3 Xrotation Yrotation Zrotation
													End Site
													{
														OFFSET 0.000000 0.000000 0.000000
													}
												}
											}
										}
										JOINT RightHandRing1
										{
											OFFSET -24.660912 0.144745 -6.225863
											CHANNELS 3 Xrotation Yrotation Zrotation
											JOINT RightHandRing2
											{
												OFFSET -9.393806 0.000046 -0.000017
												CHANNELS 3 Xrotation Yrotation Zrotation
												JOINT RightHandRing3
												{
													OFFSET -9.928528 -0.000015 -0.000007
													CHANNELS 3 Xrotation Yrotation Zrotation
													End Site
													{
														OFFSET 0.000000 0.000000 0.000000
													}
												}
											}
										}
										JOINT RightHandPinky1
										{
											OFFSET -23.655312 0.125748 -12.815530
											CHANNELS 3 Xrotation Yrotation Zrotation
											JOINT RightHandPinky2
											{
												OFFSET -8.425102 0.000031 -0.000015
												CHANNELS 3 Xrotation Yrotation Zrotation
												JOINT RightHandPinky3
												{
													OFFSET -8.146980 0.000015 -0.000021
													CHANNELS 3 Xrotation Yrotation Zrotation
													End Site
													{
														OFFSET 0.000000 0.000000 0.000000
													}
												}
											}
										}
									}
								}
							}
						}
					}
				}
			}
		}
	}
	JOINT LeftUpLeg
	{
		OFFSET 11.394079 -6.187805 -0.413817
		CHANNELS 3 Xrotation Yrotation Zrotation
		JOINT LeftLeg
		{
			OFFSET 0.435522 -32.302582 3.732836
			CHANNELS 3 Xrotation Yrotation Zrotation
			JOINT LeftFoot
			{
				OFFSET -0.422448 -48.265030 -6.423308
				CHANNELS 3 Xrotation Yrotation Zrotation
				JOINT LeftToeBase
				{
					OFFSET 4.230914 -16.068172 23.438400
					CHANNELS 3 Xrotation Yrotation Zrotation
					JOINT LeftToe_End
					{
						OFFSET 4.510741 0.695408 19.974636
						CHANNELS 3 Xrotation Yrotation Zrotation
						End Site
						{
							OFFSET 0.000000 0.000000 0.000000
						}
					}
				}
			}
		}
	}
	JOINT RightUpLeg
	{
		OFFSET -11.333660 -6.187805 -0.413817
		CHANNELS 3 Xrotation Yrotation Zrotation
		JOINT RightLeg
		{
			OFFSET -0.425090 -32.302704 3.733010
			CHANNELS 3 Xrotation Yrotation Zrotation
			JOINT RightFoot
			{
				OFFSET 0.438313 -48.264862 -6.423481
				CHANNELS 3 Xrotation Yrotation Zrotation
				JOINT RightToeBase
				{
					OFFSET -4.230914 -16.068172 23.438402
					CHANNELS 3 Xrotation Yrotation Zrotation
					JOINT RightToe_End
					{
						OFFSET -4.510741 0.695407 19.974638
						CHANNELS 3 Xrotation Yrotation Zrotation
						End Site
						{
							OFFSET 0.000000 0.000000 0.000000
						}
					}
				}
			}
		}
	}
}
MOTION
Frames: 6
Frame Time: 0.016667
-0.058979 94.284737 -0.777169 -6.091885 -43.084167 -4.028494 5.835210 4.692062 -1.238643 11.839515 9.031699 -3.079604 0.000000 0.000000 0.000000 11.839511 9.031710 -3.079606 -4.303142 -1.284328 0.197019 -6.271514 20.437782 -0.378347 -0.000001 0.000000 -0.000000 1.386281 -0.696151 -7.881089 0.000000 0.000000 0.000000 -14.260099 2.394310 -63.277352 9.872133 -47.524945 5.927517 16.181743 0.922292 18.793752 9.163976 4.814683 -5.499548 -0.346195 0.039659 0.776609 -0.000447 -0.000726 0.000055 -0.000000 -0.000001 0.000001 -0.903770 -6.980525 -3.808505 0.050040 0.804056 -16.414135 0.000001 -0.000000 0.000002 1.230322 6.710027 -11.576216 -0.361369 1.495197 -21.858173 -0.000001 -0.000001 0.000001 2.597202 14.903003 -31.342345 -0.589773 -2.699916 -32.012226 0.000002 0.000000 -0.000001 4.167042 18.500805 -34.985540 -0.706115 -5.776697 -39.373005 -0.000000 -0.000000 -0.000000 1.402684 9.461283 9.791460 0.000000 0.000000 0.000000 1.219647 -24.271321 60.533009 -6.660418 41.858340 8.041148 6.216724 12.320842 11.674504 -8.895034 -4.903599 -0.383262 7.881130 -19.203309 -2.859035 -0.000450 0.000718 -0.000058 -0.000000 0.000000 -0.000000 -1.070287 -1.214251 4.525594 0.124634 -1.114282 16.932304 0.000000 0.000001 0.000000 -1.267988 0.092482 9.852836 -0.615971 -1.234809 30.541252 0.000000 -0.000002 -0.000002 2.403732 -7.412198 21.762168 -1.009894 3.770100 37.431025 0.000000 -0.000000 0.000002 3.486663 -10.061304 24.323892 -1.472686 7.879382 41.092812 0.000002 -0.000001 -0.000003 -30.528248 4.938357 14.016918 33.604244 -13.711659 -0.138159 -0.500279 0.499386 -8.880514 -2.319088 -3.208635 0.802959 -0.000000 -0.000002 -0.000000 -6.242253 -12.871484 -16.861575 32.324106 -9.227963 -0.465906 -18.023286 -3.762521 17.731984 -1.786605 -0.361838 0.339081 0.000000 0.000002 0.000000 
0.042948 94.320107 -0.778821 -5.614594 -43.110737 -3.867656 5.817277 4.575610 -1.235492 11.799046 8.799393 -3.072767 0.000000 0.000000 0.000000 11.799046 8.799392 -3.072768 -4.422129 -1.092330 0.277849 -5.829505 20.627349 -0.313117 -0.000001 0.000000 0.000000 1.383088 -0.397808 -7.926435 0.000000 0.000000 0.000000 -14.029761 2.734218 -62.772095 9.926937 -48.184242 6.035419 16.037091 0.964725 18.297757 8.850798 4.610852 -5.453149 -0.329620 0.086096 0.790613 -0.000447 -0.000723 0.000057 -0.000000 0.000001 -0.000001 -0.920455 -6.930537 -3.923211 0.048085 0.797721 -16.468197 0.000001 -0.000000 0.000001 1.197049 6.577599 -11.590974 -0.356732 1.506627 -21.745309 0.000000 0.000000 0.000000 2.544662 14.813118 -31.181815 -0.581169 -2.689119 -31.792628 -0.000000 -0.000001 -0.000000 4.121492 18.473146 -34.706985 -0.703461 -5.773684 -39.183443 -0.000002 -0.000000 0.000000 1.380348 9.243847 9.868339 0.000000 0.000000 0.000000 0.761769 -23.273364 59.588114 -6.011224 41.848214 8.413250 5.706454 12.226360 11.274546 -8.980222 -4.712967 -0.451563 7.781175 -18.976863 -2.857196 -0.000450 0.000718 -0.000057 0.000000 -0.000001 -0.000000 -1.087981 -1.140865 4.608856 0.123784 -1.111511 16.961118 -0.000001 -0.000000 -0.000001 -1.276464 0.123869 9.876722 -0.605456 -1.254848 30.286292 0.000001 -0.000000 -0.000001 2.409066 -7.427853 21.726839 -0.990681 3.748932 37.114186 -0.000000 -0.000001 -0.000001 3.525285 -10.144681 24.195146 -1.460663 7.865657 40.854811 0.000000 -0.000000 -0.000003 -30.875833 4.658312 14.005572 33.557744 -13.474618 -0.087987 -0.409048 0.508578 -8.920164 -2.317335 -3.185363 0.758572 -0.000000 -0.000004 -0.000000 -6.469541 -12.644206 -16.610072 32.161704 -9.499142 -0.466168 -17.850433 -3.774013 17.759923 -1.690324 -0.303073 0.336890 -0.000000 -0.000000 -0.000000 
0.356514 94.163483 -0.866013 -4.793822 -43.214392 -3.355286 5.840228 4.372985 -1.232354 11.833217 8.390630 -3.031208 0.000000 0.000000 0.000000 11.833218 8.390643 -3.031210 -4.921771 -0.745158 0.377359 -5.471391 20.932038 -0.687780 -0.000001 0.000000 0.000000 1.353757 -0.084324 -8.114229 0.000000 0.000000 0.000000 -13.720322 3.472215 -62.042747 9.761170 -49.803250 6.773210 15.780734 1.130431 17.420809 8.068488 4.044374 -5.454352 -0.301955 0.171155 0.820054 -0.000451 -0.000722 0.000058 -0.000002 0.000001 0.000002 -0.970838 -6.832447 -4.216594 0.042570 0.780003 -16.619978 -0.000001 0.000000 -0.000001 1.117042 6.263905 -11.650159 -0.346904 1.531139 -21.503915 -0.000000 0.000001 0.000001 2.431287 14.603609 -30.831440 -0.562140 -2.664762 -31.300325 -0.000001 -0.000001 -0.000002 4.037490 18.419335 -34.083740 -0.697622 -5.766921 -38.761918 -0.000000 0.000000 0.000003 1.366459 8.740151 9.888945 0.000000 0.000000 0.000000 0.198830 -22.093799 58.169258 -5.011267 43.032145 8.205901 5.403944 11.567768 11.095767 -9.231882 -4.216313 -0.574556 7.532883 -18.420810 -2.849279 -0.000449 0.000718 -0.000058 -0.000000 0.000000 -0.000000 -1.139319 -0.943756 4.817469 0.121393 -1.103662 17.044051 0.000001 0.000000 -0.000000 -1.297196 0.198458 9.945172 -0.576682 -1.299853 29.701952 -0.000001 0.000000 -0.000001 2.425529 -7.477065 21.660895 -0.952946 3.698128 36.384390 -0.000000 -0.000001 -0.000001 3.634187 -10.363594 23.913628 -1.433298 7.833941 40.310332 0.000000 0.000000 0.000002 -31.883419 4.115602 13.680623 34.043367 -12.887947 0.100552 -0.341359 0.538438 -9.000564 -2.385191 -3.108408 0.875836 -0.000000 -0.000002 0.000000 -7.674166 -12.054887 -16.703429 32.919251 -9.790486 -0.403842 -17.828361 -3.833293 17.877486 -1.555690 -0.218972 0.330482 -0.000000 0.000000 0.000000 
0.909607 93.735611 -1.044634 -3.490881 -43.462597 -2.450472 5.899246 4.130765 -1.226316 11.935588 7.898666 -2.958465 0.000000 0.000000 0.000000 11.935584 7.898659 -2.958462 -5.669655 -0.289496 0.470748 -5.266488 21.333567 -1.343455 -0.000001 -0.000000 -0.000000 1.309644 0.214995 -8.413659 0.000000 0.000000 0.000000 -13.338972 4.470538 -61.256675 9.454373 -52.092128 7.865758 15.498621 1.210970 16.559503 6.952473 3.158111 -5.592080 -0.277107 0.259587 0.856080 -0.000449 -0.000725 0.000060 -0.000003 -0.000001 -0.000001 -1.053269 -6.719819 -4.646299 0.034019 0.752329 -16.856603 -0.000001 0.000000 0.000000 1.001186 5.832161 -11.760209 -0.334628 1.561863 -21.201071 -0.000001 -0.000000 0.000000 2.291028 14.317536 -30.383110 -0.541565 -2.631584 -30.653667 -0.000001 -0.000001 -0.000000 3.954119 18.355927 -33.267700 -0.690033 -5.758135 -38.212231 -0.000001 -0.000000 -0.000001 1.342446 8.063064 9.863327 0.000000 0.000000 0.000000 -0.357412 -20.942460 56.549028 -3.777749 45.173778 7.545367 5.370546 10.723558 10.830506 -9.631808 -3.478499 -0.693191 7.180849 -17.629401 -2.833783 -0.000450 0.000718 -0.000059 0.000001 -0.000000 -0.000001 -1.222379 -0.645814 5.118620 0.117538 -1.091305 17.174936 -0.000001 -0.000001 -0.000000 -1.332788 0.300495 10.055496 -0.538727 -1.360770 28.917597 0.000001 -0.000000 0.000002 2.452337 -7.558917 21.589994 -0.903080 3.628876 35.400771 -0.000001 0.000000 -0.000002 3.802433 -10.691170 23.552470 -1.397082 7.790976 39.580974 -0.000002 0.000000 0.000000 -33.883564 3.392148 13.243532 35.302048 -12.058309 0.310120 -0.348035 0.560155 -9.040589 -2.029863 -2.962359 0.146339 0.000000 0.000000 0.000000 -10.118328 -11.068099 -17.145735 34.813375 -10.001165 -0.250942 -18.009262 -3.916797 18.072283 -1.460755 -0.199698 0.313505 -0.000000 -0.000000 0.000000 
1.660648 92.974640 -1.288155 -1.572019 -43.993296 -1.158073 5.976667 3.903409 -1.212117 12.075092 7.433979 -2.865504 0.000000 0.000000 0.000000 12.075096 7.433979 -2.865507 -6.660610 0.299512 0.536923 -5.325498 21.876572 -2.274109 0.000001 -0.000000 -0.000000 1.252080 0.485975 -8.859247 0.000000 0.000000 0.000000 -12.870000 5.740185 -60.492274 9.032072 -55.126344 9.267467 15.228660 1.004279 16.019391 5.525103 1.964611 -5.820684 -0.247768 0.367655 0.902007 -0.000449 -0.000720 0.000054 -0.000002 -0.000002 0.000001 -1.163206 -6.577246 -5.207396 0.022751 0.715875 -17.168558 -0.000004 0.000002 -0.000002 0.852293 5.273335 -11.909818 -0.319220 1.601096 -20.815546 0.000000 -0.000001 -0.000000 2.123349 13.944457 -29.812082 -0.515608 -2.588649 -29.823847 -0.000002 -0.000000 0.000000 3.860195 18.272733 -32.222913 -0.680325 -5.746725 -37.507697 -0.000003 0.000002 -0.000001 1.316223 7.216587 9.790402 0.000000 0.000000 0.000000 -0.809995 -19.980236 54.800869 -2.239603 48.498708 6.302766 5.748177 9.919060 10.167419 -10.147476 -2.510648 -0.821309 6.722655 -16.601043 -2.810550 -0.000449 0.000717 -0.000059 0.000000 0.000000 -0.000000 -1.336298 -0.255864 5.512265 0.112588 -1.075218 17.343770 -0.000000 -0.000002 -0.000001 -1.378861 0.432683 10.201441 -0.491198 -1.439872 27.907566 0.000000 -0.000001 0.000002 2.487644 -7.667471 21.502329 -0.840697 3.538531 34.133095 -0.000001 -0.000000 0.000001 4.018036 -11.122903 23.091329 -1.351415 7.735164 38.641785 -0.000000 0.000000 -0.000000 -37.145325 2.748296 13.192529 37.486803 -11.355495 0.225542 -0.471454 0.572091 -8.877447 -1.746558 -2.795081 -0.395506 -0.000000 0.000000 -0.000000 -13.894827 -9.705875 -17.834105 37.836967 -9.898378 0.027326 -18.407618 -4.015822 18.262157 -1.437048 -0.281937 0.291264 0.000000 0.000002 -0.000000 
2.542310 91.842094 -1.571994 1.051046 -44.839635 0.541637 6.053123 3.715593 -1.189143 12.215210 7.046535 -2.765551 0.000000 0.000000 0.000000 12.215203 7.046558 -2.765558 -7.834799 1.034747 0.555442 -5.739559 22.596067 -3.402416 -0.000001 -0.000000 -0.000000 1.185570 0.725978 -9.477756 0.000000 0.000000 0.000000 -12.265220 7.278167 -59.850858 8.580706 -58.892521 10.880169 15.011255 0.261377 16.193789 3.838114 0.480994 -6.128300 -0.211034 0.499782 0.957953 -0.000453 -0.000722 0.000056 -0.000003 0.000000 0.000001 -1.296815 -6.400339 -5.886444 0.010002 0.674268 -17.546273 0.000001 -0.000000 0.000003 0.674077 4.595338 -12.092223 -0.300657 1.648841 -20.346946 -0.000001 -0.000001 -0.000001 1.937253 13.486226 -29.121160 -0.484963 -2.535848 -28.816517 -0.000001 0.000001 -0.000000 3.757261 18.165578 -30.957546 -0.668849 -5.732722 -36.652260 -0.000002 -0.000001 -0.000002 1.282812 6.221981 9.687683 0.000000 0.000000 0.000000 -1.040807 -19.336776 53.051029 -0.307242 53.014132 4.417807 6.564083 9.495770 8.654963 -10.748822 -1.336232 -0.954793 6.170531 -15.355396 -2.771019 -0.000449 0.000718 -0.000060 -0.000000 -0.000000 0.000001 -1.480309 0.213549 5.990495 0.106667 -1.055969 17.546940 -0.000000 0.000000 0.000000 -1.433924 0.593016 10.377731 -0.435337 -1.537045 26.681972 -0.000001 -0.000000 -0.000001 2.530334 -7.797978 21.395998 -0.767610 3.426965 32.595589 -0.000001 -0.000001 0.000000 4.268666 -11.649259 22.533289 -1.297121 7.666315 37.502656 -0.000001 0.000003 -0.000002 -41.727364 2.260490 13.841480 40.614873 -11.011686 -0.324962 -0.734346 0.572003 -8.434916 -1.531925 -2.575798 -0.648852 -0.000000 0.000002 -0.000000 -18.930284 -8.053149 -18.658581 41.835083 -9.279218 0.472457 -19.007605 -4.143086 18.339971 -1.435073 -0.408075 0.264626 0.000000 0.000002 0.000000 
